<svg xmlns="http://www.w3.org/2000/svg" width="600" height="375.78" viewBox="0 0 600 375.78"><path d="M298.542 297.699l.012.001.011-.015-.023.014zm68.614-48.996c-14.99 12.69-30.526 24.646-46.86 35.559-6.586 4.4-13.216 8.733-19.992 12.838-.552.334-1.048.744-1.75.6l-.45.624c-1.04 1.998-2.425 3.803-3.238 5.965-1.277-.323-.556-1.533-1.205-2.217-.598-.498-1.217.173-1.877.247-5.084 2.74-10.137 5.539-15.258 8.208-17.266 9.002-35.07 16.628-54.365 20.073-13.98 2.497-27.825 2.042-41.214-3.282-8.198-3.26-15.435-7.975-21.368-14.579-3.259-2.79-5.737-6.134-7.222-10.182-3.49-5.44-5.192-11.556-6.438-17.78-1.63-8.14-2.056-16.416-1.691-24.693.46-10.455 1.084-20.893 2.376-31.303 3.153-25.398 9.845-49.848 19.155-73.618 2.31-5.898 5.033-11.633 7.566-17.442 3.346-7.33 7.301-14.313 11.405-21.252 2.853-4.826 5.929-9.474 9.068-14.093 2.348-3.455 4.845-6.811 7.348-10.157.665-.888 1.363-1.861 2.569-2.165.136-.89.66-1.551 1.227-2.212 5.441-6.342 11.02-12.536 17.208-18.186 11.246-10.266 23.257-19.356 37.327-25.464 15.248-6.62 31.058-9.195 47.613-6.935 17.627 2.406 28.614 12.808 34.81 28.86 3.673 9.516 2.905 19.313 1.085 29.102-.725 3.9-1.991 7.659-3.065 11.52 2.383.81 4.231 2.052 6.776-.077 8.206-6.866 16.55-13.556 24.592-20.63 6.108-5.374 10.31-11.777 12.612-19.48 2.796-9.36 3.263-18.93 2.204-28.594-1.554-14.17-8.666-24.525-21.474-30.847-8.12-4.008-16.864-5.555-25.8-6.291-.854-.07-2.06.597-2.515-.82h-.858c-.654.882-1.592.452-2.377.427-5.66-.18-11.233.289-16.766 1.577-11.136 2.593-21.49 7.207-31.724 12.117-19.897 9.545-38.476 21.248-55.992 34.646-10.608 8.114-20.795 16.727-30.402 26.015-.667.645-1.31 1.324-2.223 1.632-.135.719-.395 1.399-.959 1.871-5.975 5.003-10.923 11.026-16.427 16.496-.587.584-1.078 1.4-2.126 1.168-.156.778-.458 1.45-1.021 2.065a464.248 464.248 0 0 0-6.84 7.668c-10.352 11.83-19.913 24.276-28.776 37.252-16.406 24.021-30.07 49.523-41.21 76.396-7.255 17.505-12.388 35.542-13.559 54.513-.562 9.113-.29 18.239 1.544 27.278 4.402 21.708 16.732 36.765 37.277 45.102 13.077 5.306 26.827 7.03 40.764 7.612 12.225.51 24.375-.56 36.42-2.61 16.224-2.76 31.905-7.515 47.166-13.61 19.898-7.948 38.534-18.358 56.566-29.836 14.635-9.317 28.74-19.41 42.46-30.046 12.076-9.36 23.747-19.19 35.212-29.28 2.548-2.243 4.789-4.883 7.833-6.541.257-4.333.04-8.635-.851-12.892-7.48 6.505-14.72 13.275-22.29 19.683zm128.239-125.436c-1.579-1.615-3.3-1.798-5.898-.608a17.042 17.042 0 0 0-6.069 4.668c-9.536 11.557-19.2 23.003-29.091 34.262-11.877 13.52-23.994 26.81-36.664 39.59-.54.545-.982 1.261-1.872 1.325.092 4.185.188 8.372.275 12.56.012.588.151 1.124.492 1.606 4.546-4.44 9.15-8.824 13.628-13.333 9.863-9.932 19.582-20.002 28.977-30.384 5.986-6.615 11.889-13.298 17.617-20.136a5317.322 5317.322 0 0 0 16.033-19.23c1.137-1.37 2.264-2.76 3.034-4.392 1.224-2.594 1.09-4.34-.462-5.928z" fill="#b5b5b2"/><path d="M53.58 297.566c-3.082-.965-3.354-.807-4.036 2.612 4.789 1.52 6.78 5.252 7.492 9.941.907 5.97.582 11.968.45 17.963-.033 1.442-.858 1.77-2.106 1.77-15.856.006-31.713.138-47.562-.413-2.215-.077-4.273-.886-5.19-3.159-.526-1.303-1.345-1.723-2.628-1.548v20.591c1.417-.086 2.158-.843 2.76-2.154 1.026-2.23 2.94-3.45 5.435-3.574 2.353-.117 4.708-.229 7.063-.233 12.286-.023 24.573.035 36.859-.038 3.946-.023 7.352.501 8.277 5.172.143.72.671.849 1.303.762.834-.115.729-.774.704-1.318-.076-1.64-.32-3.28-.28-4.914.317-12.8-.948-25.643.909-38.535-3.055-.945-6.255-1.925-9.45-2.925zm284.653 69.252c-.81-.368-1.3.015-1.796.656-7.337 9.493-23.446 6.414-28.282-4.582-3.135-7.126-3.019-14.48-.249-21.698 1.763-4.595 5.071-7.641 10.036-8.77 5.886-1.339 14.463.482 17.31 6.984.458 1.049 1.268 1.024 2.135.867.884-.159.778-.896.76-1.53-.05-1.714-.103-3.428-.188-5.14-.053-1.083-.46-1.767-1.668-2.132-5.602-1.694-11.318-2.468-17.134-2.005-7.403.588-13.67 3.585-18.026 9.768-8.375 11.887-4.204 31.574 15.26 35.687.309.065.628.097.94.151 2.288.399 4.592.706 6.915.706h.563c2.602 0 5.186-.306 7.767-.643.183-.024.352-.021.468-.015 4.398.256 4.884-2.986 5.583-6.066.032-.14.09-.272.128-.41.193-.713.365-1.426-.522-1.828zm82.877-9.093c-1.622-.545-3.265-1.047-4.852-1.69-3.239-1.317-4.586-3.857-3.78-6.937.756-2.87 3.561-4.526 6.864-4.058 2.33.33 4.157 1.403 5.32 3.513.506.914 1.32 1.523 2.226.674 1.047-.978-.004-4.728-1.364-5.247-3.085-1.18-6.302-1.26-9.506-.88-4.234.503-7.782 4.068-8.258 8.048-.605 5.08 1.253 8.185 6.023 10.034 2.063.802 4.2 1.437 6.177 2.411 2.53 1.244 3.389 3.196 2.831 5.607-.497 2.157-2.767 3.998-5.117 4.174-3.2.24-5.508-1.107-6.988-3.908-.275-.528-.507-1.06-1.219-.987a1.033 1.033 0 0 0-.528.193s-.182.139-.291.382c-.164.363-.188 1.422.592 2.865a7.628 7.628 0 0 0 1.716 2.145 7.245 7.245 0 0 0 2.145 1.287 6.872 6.872 0 0 0 2.179.43h1.428c1.801 0 3.623-.307 5.217-1.146a1.13 1.13 0 0 0 .017-.009c4.13-2.273 5.67-4.504 5.55-8.79-.115-4.182-2.136-6.674-6.382-8.111zm15.164-51.958c-1.197-.051-2.377-.463-3.56-.725-5.848-1.295-9.58-4.727-11.021-10.642-1.33-5.444-1.802-10.986-2.123-16.542-.434-7.412-.691-14.838-1.056-22.255-.635-12.98-1.295-25.957-1.947-38.933-.34-.48-.48-1.017-.49-1.609-.09-4.187-.184-8.373-.278-12.556-.592-12.487-1.188-24.97-1.776-37.458-.764-16.125-1.506-32.25-2.278-48.375-.845-17.626-1.737-35.244-2.548-52.87-.232-5.024-.137-4.956-5.083-5.089-1.626-.047-2.458.545-3.097 1.96-1.347 2.995-2.806 5.942-4.247 8.893-9.009 18.416-18.03 36.828-27.034 55.244-12.83 26.248-25.648 52.497-38.466 78.75-8.777 17.979-17.528 35.965-26.335 53.93-.82 1.674-1.42 3.51-2.865 5.11-.584-.957-1.081-1.729-1.536-2.527-3.912-6.893-7.807-13.8-11.728-20.69-11.527-20.238-23.079-40.46-34.597-60.703-11.942-20.985-23.846-41.992-35.789-62.982-4.873-8.562-9.802-17.099-14.705-25.644-1.206.305-1.905 1.279-2.57 2.167-2.5 3.346-4.997 6.7-7.348 10.153-3.14 4.62-6.212 9.27-9.068 14.096-4.101 6.937-8.057 13.92-11.403 21.252.49 2.68-.034 5.353-.18 8.017-.39 7.057-1.025 14.096-1.505 21.149-.863 12.68-1.703 25.365-2.519 38.045-.643 9.978-1.115 19.969-1.883 29.934-1.222 15.94-1.57 31.954-3.796 47.813-.493 3.53-1.236 7.018-2.583 10.36-1.698 4.217-4.414 7.468-8.502 9.514 1.484 4.05 3.964 7.396 7.22 10.184a96.377 96.377 0 0 1 16.455-.643c8.485.407 16.97.88 25.447 1.433 2.128.137 2.69-.622 2.655-2.652-.077-4.487-.017-4.362-4.401-5.525-7.953-2.114-12.659-7.614-15.276-15.164a44.739 44.739 0 0 1-2.45-13.65c-.29-12.929-.312-25.871.426-38.787.866-15.182 1.908-30.35 2.848-45.523.995-16.104 1.956-32.207 2.93-48.315.339-5.628.652-11.26.986-16.893.043-.742-.167-1.587.614-2.094 1.068.043 1.291.897 1.66 1.54 13.35 23.384 26.686 46.771 40.032 70.155 16.678 29.208 33.365 58.409 50.04 87.622 3.435 6.014 6.829 12.054 10.239 18.076l2.638 4.114 4.144-8.746-.017-.009c.527-2.54 1.947-4.702 3.063-6.975 12.852-26.219 25.755-52.416 38.633-78.622 11.368-23.13 22.723-46.27 34.078-69.404 2.513-5.122 5.01-10.256 7.52-15.378.334-.682.72-1.334 1.106-2.042.922.579.871 1.325.91 2.003.459 8.408.875 16.82 1.355 25.228.802 14.04 1.66 28.072 2.462 42.112.498 8.764.974 17.532 1.377 26.3.13 2.707.64 5.397.395 8.12.888 4.256 1.107 8.559.85 12.896.42 7.914.99 15.825 1.21 23.743.23 8.344.883 16.718-.28 25.044-.918 6.563-3.8 11.797-10.467 14.165a20.81 20.81 0 0 1-5.22 1.098c-.734.06-1.493.158-1.48 1.154.026 2.046-.206 4.105.262 6.717 21.298-2.475 42.584-1.866 64.152-.068 0-2.192-.094-3.822.026-5.44.125-1.698-.463-2.48-2.226-2.56zm66.986 67.98c-2.524-1.075-2.935-3.317-3.121-5.648-.602-7.543-1.164-15.09-1.755-22.634-.386-4.912-.797-9.821-1.195-14.731-.047-.571-.018-1.191-.82-1.272-.58-.059-1.165-.089-1.514.513a22.7 22.7 0 0 0-.696 1.327c-5.032 10.182-10.054 20.37-15.11 30.54-.318.637-.372 1.561-1.386 1.775-.202-.307-.414-.592-.587-.899-5.91-10.522-11.834-21.037-17.703-31.583-.706-1.268-1.399-2.155-3.117-1.463-.081.298-.17.497-.188.703-1.028 11.59-2.009 23.184-3.1 34.767-.31 3.28-.19 6.873-3.947 8.649-.147.069-.123.5-.255 1.117 3.698 0 7.23.004 10.76-.005.395 0 .672-.208.718-.631.043-.391-.089-.757-.456-.88-3.231-1.087-3.083-3.79-2.967-6.375.265-5.92.622-11.838.975-17.755.073-1.223.29-2.436.517-4.273 6.195 10.315 12.053 20.07 18.158 30.232l14.164-28.896.57.17c.55 7.735 1.625 15.427 1.76 23.195.026 1.484-.472 2.81-1.882 3.616-.521.297-.95.677-.577 1.416h13.207c-.23-.515-.276-.9-.453-.975zM18.74 197.086c.09 3.927.015 7.859.031 11.788.003.611-.167 1.385.729 1.555.775.147.847-.55 1.126-1.035.683-1.188 1.74-1.889 3.111-1.973 1.21-.075 2.429-.015 3.643-.047 9.496-.253 18.99-.634 28.492-.473 1.881.032 3.57.294 4.233 2.466.207.681.678 1.302 1.616.927.51-.54.296-1.216.329-1.833.362-6.709.161-13.425.22-20.137.016-1.854-.24-3.752.287-5.546.543-1.846.12-2.742-1.882-2.96-1.187-.13-2.32-.7-3.501-.952-.756-.161-1.68-.878-2.293.205-.617 1.09-.012 1.85.81 2.57 1.407 1.234 2.73 2.558 2.942 4.567.423 3.986.317 7.987.303 11.985-.004 1.216-.598 1.877-1.838 1.852-4.568-.094-9.139.192-13.707-.187-1.284-.107-1.753-.577-1.717-1.841.066-2.357.12-4.72.014-7.072-.132-2.892.283-5.315 3.689-6.02.673-.14 1.046-.658.845-1.472-.152-.61-.325-1.085-1.057-1.104-3.313-.085-6.62.23-9.859-.199-.373 1.39-.356 2.326.767 2.907 1.67.864 2.206 2.447 2.276 4.114.132 3.139.054 6.286.09 9.43.014 1.122-.447 1.395-1.573 1.377a322.28 322.28 0 0 0-12.383.058c-1.734.039-2.51-.636-2.49-2.372.034-2.786-.075-5.576.02-8.359.082-2.372 1.066-4.318 3.456-5.144 1.707-.59 2.219-1.57 1.481-3.391-2.934.206-5.883.19-9.04-.049 1.404 5.665.707 11.032.83 16.365zm.052-24.314c-.001.612-.195 1.398.569 1.68.879.323 1.006-.494 1.303-1.047.7-1.3 1.738-2.003 3.291-1.926 1.21.06 2.429 0 3.642-.051 9.28-.398 18.566-.466 27.854-.458 1.832.001 3.576.176 4.667 1.988.356.592.305 1.868 1.433 1.46.907-.326.472-1.388.498-2.119.32-9.184-.596-18.398.697-27.714-1.69-.477-3.378-1.037-5.107-1.406-.893-.19-1.96-1.371-2.772.195-.719 1.386.416 1.916 1.195 2.587 1.46 1.257 2.436 2.74 2.658 4.72.455 4.062.134 8.132.19 12.197.015 1.068-.674 1.25-1.571 1.247-4.644-.015-9.289-.026-13.933.01-1.386.012-1.938-.592-1.882-1.941.123-2.995-.062-5.99.166-8.992.15-1.982.908-3.203 2.783-3.823 1.279-.424 2.142-1.168 1.344-2.886-2.911-.004-5.896.365-8.87-.009-.63-.079-1.524-.41-1.824.581-.258.856.088 1.465.894 1.936 1.775 1.037 2.436 2.661 2.4 4.691-.052 2.857-.032 5.717.039 8.573.034 1.38-.48 1.886-1.879 1.866-4.214-.062-8.431-.07-12.645.015-1.54.031-1.989-.577-1.953-2.017.07-2.856.088-5.717.004-8.573-.068-2.324.856-3.988 2.87-5.09.626-.341 1.285-.637 1.868-1.043.7-.487.601-1.258.446-1.958-.14-.634-.715-.651-1.215-.585-2.548.34-5.106.129-7.884.035.173 2.257.862 4.292.829 6.433-.11 7.14-.09 14.282-.105 21.424zm41.888 42.62c-1.968-.561-3.901-1.263-5.85-1.515-1.11 1.152-.804 1.92.262 2.73 7.81 5.942 6.435 19.286-1.106 24.979-7.415 5.599-15.734 5.379-24.094 2.633-5.525-1.815-8.769-5.935-9.247-11.733-.503-6.088.858-11.59 6.854-14.738 1.358-.712 1.332-1.664 1.04-2.969-7.3-1.057-8.357-.341-9.766 6.485-.13.63-.334 1.247-.416 1.882-.818 6.366-1.077 12.697 1.797 18.695 4.074 8.5 10.905 12.94 20.291 12.83 9.18-.107 15.917-4.51 19.82-12.89 3.775-8.106 3.191-16.535 1.544-25.007-.136-.7-.406-1.176-1.13-1.382zm-41.477 80.697c.569.181.954-.086 1.26-.546.778-1.165 1.939-1.885 3.1-2.585 6.235-3.759 12.483-7.5 18.723-11.251.737-.443 1.456-.936 2.357-.933 4.071.013 8.142.029 12.213.064 1.746.015 2.966.824 3.665 2.46.247.579.313 1.531 1.495 1.129v-13.88c-.787-.214-1.184.063-1.341.596-.682 2.302-2.468 2.747-4.53 2.753-3.93.013-7.859.012-11.788.04a4.815 4.815 0 0 1-2.639-.738c-5.466-3.376-10.954-6.717-16.4-10.125-1.866-1.167-3.82-2.27-5.014-4.252-.36-.597-.87-.672-1.78-.184.663 3.496.097 7.185.201 10.792.901.085 1.199-.14 1.305-.495.668-2.24 2.236-2.279 4.09-1.742 1.882.544 3.475 1.654 5.141 2.607 3.387 1.939 6.737 3.94 10.102 5.915-.352 1.07-.91 1.277-1.4 1.553-4.045 2.275-8.094 4.54-12.134 6.823-.885.5-1.837.76-2.813.999-1.173.287-2.14.12-2.722-1.04-.248-.496-.549-.874-1.143-.705-.652.185-.553.784-.517 1.254.269 3.423.322 6.844-.02 10.265-.05.512-.027 1.028.589 1.226zm363.26 47.1c-6.32.757-11.02 3.806-13.154 10.035-2.907 8.485.42 19.654 11.258 21.66 2.196.491 4.423.42 6.646.424a18.01 18.01 0 0 0 4.922-.654l.026-.007c10.612-2.998 15.13-16.226 8.522-25.135-4.605-6.208-11.147-7.17-18.22-6.323zm12.677 24.54c-2.3 4.627-5.666 6.246-11.161 5.531-4.402-.572-6.776-3.619-8.192-7.522-.784-2.159-1.127-4.421-.952-6.42-.111-4.221.8-7.842 3.303-10.901 4.468-5.463 13.424-4.582 16.812 1.831 3.004 5.69 3.072 11.684.19 17.481zM178.587 94.781c5.504-5.47 10.452-11.493 16.427-16.496.564-.472.824-1.153.959-1.871-2.483-4.415-4.944-8.843-7.455-13.243-2.68-4.693-2.699-4.634-8.066-4.441-1.315.047-1.777.57-1.829 1.761-.096 2.21-.202 4.42-.34 6.628-.6 9.61-1.213 19.22-1.822 28.83 1.048.232 1.54-.584 2.126-1.168zm351.504 274.395c-3.1-8.059-6.251-16.099-9.428-24.128-.252-.638-.208-1.631-1.35-1.742-.324.719-.644 1.426-.962 2.134-4.35 9.689-6.801 20.207-12.794 29.328h7.2c.27-.386.013-.587-.24-.874-1.275-1.455-.907-6.469.583-7.7.292-.24.785-.325 1.187-.33 2.714-.029 5.43-.014 8.145-.022.697-.002 1.332.173 1.528.902.702 2.622 3.25 5.123.345 7.939h9.259c-1.98-1.69-2.73-3.577-3.473-5.507zm-16.189-5.614l4.11-11.067.5-.002c1.38 3.58 2.759 7.162 4.263 11.07h-8.873zm-148.19 5.232c-.89-.485-1.16.197-1.451.735-.82 1.512-2.15 2.264-3.763 2.543-3.033.523-6.075.748-9.164.418-1.32-.14-1.652-.675-1.64-1.9.056-5.718-.211-11.453.15-17.15.204-3.202-1.231-6.967 2.796-9.665h-10.348c2.624 3.179 2.63 3.179 2.634 7.643.005 5.432.027 10.865-.012 16.298-.019 2.61.85 5.623-3.013 6.827 7.652.487 15.044-.03 22.716.574.48-1.597.966-3.233 1.469-4.864.177-.574.323-1.079-.375-1.46zM11.651 195.025c1.362 1.106 2.464 2.549 4.292 3.444.21-1.324.34-2.387-.33-3.344-1.918-2.736-3.817-5.487-5.785-8.187-.971-1.333-2.245-2.108-3.822-.94-1.217.902-1.023 2.985.4 4.336 1.702 1.614 3.425 3.215 5.245 4.691zM543.19 371.151a4.523 4.523 0 0 1-.06-.42v-9.918c0-2.136.008-4.272.06-6.404v-6.16c0-1.605.33-3.18 2.162-4.427h-9.94c1.772 1.128 2.514 2.093 2.527 3.654.047 6.71.558 13.414.412 20.132-.034 1.549.189 3.162-.412 4.637-.364.905-1.042 1.755-2.269 2.506h10.008c-1.471-1.163-2.244-2.265-2.488-3.6zm21.431-8.6c-1.093-1.189-1.282-1.905.747-2.519 4.616-1.394 6.97-5.992 5.534-10.29-1.154-3.437-3.913-4.96-7.177-5.723-.33-.077-.656-.146-.987-.197h-13.358a1.43 1.43 0 0 0-.287.446c1.836.686 2.144 2.016 2.2 3.479h-.004v22.714c0 1.664-.772 3.256-2.132 4.208l-.034.021h10.265c-.017-.012-.034-.021-.052-.034-1.896-1.235-2.994-3.38-2.985-5.64l.026-7.1c-.009-.056-.018-.112-.03-.168h.03c1.488-.098 2.037.734 2.612 1.382 2.226 2.505 4.38 5.074 6.589 7.597 1.008 1.145 1.965 2.278 1.231 4.07h8.631c-4.122-3.761-7.164-8.283-10.819-12.246zm-8.244-2.922c-.013 0-.022 0-.035-.004v-14.5h.035l1.887.048c2.325-.223 4.397.322 5.924 2.218 1.91 2.368 2.205 6.49.69 9.102-1.548 2.682-4.585 3.878-8.501 3.136zm43.193 9.982c-.67-.399-1.094-.068-1.442.434-.905 1.312-2.14 2.183-3.702 2.295-2.775.201-5.563.227-8.347.321-.953.035-1.45-.373-1.446-1.394.021-3.359.009-6.717 0-10.072 0-.764.283-1.227 1.124-1.218 2.355.03 4.714-.013 7.065.098 1.124.056 2.03.678 2.462 1.802.283.734.468 1.574 1.7 1.214v-7.614c-1.052-.232-1.288.489-1.687.94-.69.789-1.514 1.316-2.586 1.33-2.214.02-4.432.016-6.645.03-.777.003-1.442-.104-1.442-1.116v-10.853c2.574 0 4.848.056 7.113-.017 2.093-.065 3.577.793 4.5 2.646.412.828.836 1.545 1.999.944v-5.56h-21.303s.129.065.326.194c.193.128.455.321.734.583.699.656 1.484 1.737 1.484 3.286v3.479c.158 5.825.141 11.655.171 17.485 0 .352.018.703.026 1.06v.171c.022.708 0 1.407-.197 2.038a3.729 3.729 0 0 1-.069.201v.005c-.206.81-.566 1.625-1.201 2.084-.33.245-.734.39-1.227.39H598.8c.351-1.295.69-2.607 1.076-3.903.155-.523.266-.94-.304-1.283z" fill="#e6af2e"/></svg>