<?xml version="1.0" standalone="no"?>
<!DOCTYPE svg PUBLIC "-//W3C//DTD SVG 20010904//EN" "http://www.w3.org/TR/2001/REC-SVG-20010904/DTD/svg10.dtd">
<svg xmlns="http://www.w3.org/2000/svg" version="1.0" width="980.000000pt" height="980.000000pt" viewBox="0 0 980.000000 980.000000" preserveAspectRatio="xMidYMid meet" style="background-color:transparent;">
  <g transform="translate(0.000000,980.000000) scale(0.100000,-0.100000)" fill="#000000" stroke="none">
    <path d="M4684 7840 c-281 -19 -592 -90 -864 -197 -247 -97 -552 -273 -760 -439 -111 -89 -378 -356 -464 -464 -169 -212 -340 -508 -439 -760 -306 -777 -266 -1654 109 -2401 151 -302 341 -558 595 -804 457 -442 1023 -712 1679 -801 172 -24 548 -24 720 0 689 93 1275 385 1746 867 763 783 1028 1882 709 2934 -99 326 -289 685 -511 965 -87 109 -355 377 -464 464 -585 463 -1305 686 -2056 636z m446 -270 c510 -46 993 -234 1398 -544 110 -84 274 -234 270 -246 -2 -5 -93 -88 -204 -187 -110 -98 -239 -213 -286 -255 -83 -76 -86 -77 -119 -68 -81 24 -171 -1 -235 -66 -48 -48 -74 -117 -74 -198 l0 -51 -252 -225 c-626 -560 -571 -514 -584 -488 -7 13 -92 203 -189 423 -216 490 -217 490 -267 542 -65 67 -122 86 -242 81 -88 -3 -107 -7 -148 -31 -98 -57 -77 -16 -493 -957 -108 -245 -224 -506 -257 -580 -174 -388 -198 -450 -198 -501 0 -128 97 -223 226 -223 74 0 141 30 183 81 16 20 69 127 116 239 l87 204 200 0 c110 0 198 -4 196 -8 -1 -5 -176 -163 -388 -353 -212 -189 -535 -478 -717 -642 -183 -163 -334 -297 -336 -297 -9 0 -120 153 -181 249 -845 1335 -353 3108 1059 3822 448 226 944 322 1435 279z m1995 -1182 c667 -991 593 -2302 -180 -3218 -162 -191 -414 -409 -630 -545 -115 -72 -361 -193 -489 -240 -805 -295 -1707 -187 -2416 290 -129 87 -292 219 -370 300 l-45 46 21 17 c12 9 161 141 330 293 170 152 539 482 819 733 l510 456 86 0 86 0 80 -188 c45 -104 93 -208 107 -230 61 -97 189 -134 301 -87 43 17 102 82 121 132 31 81 20 119 -142 482 -134 301 -147 334 -131 345 9 7 54 46 99 88 46 41 198 177 338 302 l255 227 5 -708 c5 -675 6 -710 24 -747 93 -187 349 -188 449 -2 l22 41 3 933 c2 723 5 937 15 946 6 6 142 128 301 270 l289 259 29 -34 c15 -19 67 -91 113 -161z m-2620 -1053 c81 -192 150 -358 153 -367 4 -17 -15 -18 -302 -18 -168 0 -306 4 -306 9 0 8 22 62 200 486 51 121 95 226 97 233 3 7 7 12 8 10 2 -2 69 -160 150 -353z"/>
  </g>
</svg>
